<svg width="83" height="83" viewBox="0 0 83 83" fill="none" xmlns="http://www.w3.org/2000/svg">
<g filter="url(#filter0_d_65_5185)">
<rect x="4" width="75" height="75" rx="25" fill="#F3F5FA"/>
</g>
<path d="M25.332 40.3398L26.7007 29.8538L14.8103 21.4563L25.6742 25.1982L28.2404 21.1952L37.6073 15.2778L58.2657 26.8515L59.3351 44.5167L50.1391 57.5262L42.8681 58.6575L46.632 51.6524V44.9083L43.8946 39.6436L41.1145 37.7726L36.8374 42.2542V46.9968L33.5013 50.1732L29.2669 50.6952L27.385 51.7831L24.3055 50.7821L23.0224 46.0831L25.332 42.7763V40.3398Z" fill="white"/>
<path d="M44.3218 21.3695C42.0549 20.8908 39.5742 21.0214 39.5742 21.0214C39.5742 21.0214 38.7616 24.8503 33.7146 25.851C33.7574 25.851 40.3869 28.1571 44.3218 21.3695Z" fill="#94A6C3"/>
<path d="M46.3752 56.0905C49.1126 53.9151 51.1656 50.9129 52.1066 47.519C52.1493 47.3887 52.5343 47.1711 52.7909 46.9969C53.2187 46.7359 53.6464 46.5184 53.7318 46.1703C53.903 45.1695 53.9884 44.1253 53.9884 43.081C53.9884 42.6894 53.6033 42.2979 53.2187 41.9063C52.919 41.6452 52.6197 41.3406 52.6197 41.1231C52.192 37.1636 50.3955 33.4653 47.53 30.7676L47.2306 31.0722C50.0108 33.7263 51.8073 37.3377 52.192 41.1666C52.2347 41.5147 52.577 41.8627 52.919 42.2108C53.2187 42.4719 53.5606 42.8635 53.5606 43.0375C53.5606 44.0383 53.4752 45.039 53.3041 46.0397C53.2614 46.2138 52.8763 46.3878 52.577 46.5619C52.1493 46.7794 51.7642 46.9969 51.6788 47.3452C50.6521 51.0432 48.2998 54.263 45.1776 56.3515C45.7336 55.1333 47.4872 51.1739 48.4283 49.1723L48.2571 42.733L42.8252 37.3812L39.7456 37.8163L36.3667 43.3856C36.3667 43.3856 37.9493 45.4306 35.7252 47.8238C33.5438 50.1733 31.833 50.6953 31.833 50.6953L30.2505 49.825C30.721 49.2161 31.6619 48.3024 32.389 47.6931C33.6294 46.6489 34.8698 46.5619 34.8698 45.4306C34.9125 43.081 32.4318 43.7337 32.4318 43.7337L31.5336 44.6039L31.1487 47.8238L29.2667 50.2168L29.0529 50.1733L25.9734 49.4771C25.9734 49.4771 27.8553 48.4762 28.1547 47.3452C28.4541 46.2573 27.5559 42.6459 27.5131 42.4284C27.5559 42.4719 28.4113 43.2116 28.7963 44.4299C29.4806 42.5154 30.3788 40.6879 30.6354 40.5139C30.892 40.3399 34.3565 38.4689 34.3565 38.4689L33.2017 41.5582L34.0571 41.0795L36.1101 35.9453C36.1101 35.9453 38.1204 34.9446 39.6174 34.9446C42.3119 34.9011 46.2896 31.5508 44.4932 25.5464C45.0065 25.7639 53.903 30.289 55.4425 39.1651C56.5973 45.9962 52.7909 52.3921 46.3752 56.0905Z" fill="#94A6C3"/>
<path d="M36.1953 22.3268C37.1791 21.152 36.7941 19.4116 36.7941 19.4116L33.9285 23.7192C33.8857 23.7192 34.955 23.7626 36.1953 22.3268Z" fill="#1B314F"/>
<path d="M26.5721 45.8657L26.9142 44.1252C26.9142 44.1252 25.5028 46.6488 25.3745 46.9969C25.2461 47.3885 25.46 48.0847 26.016 48.0413C26.5721 47.9978 27.2564 47.171 27.2564 46.5618C27.2564 45.7786 26.5721 45.8657 26.5721 45.8657Z" fill="#1B314F"/>
<path fill-rule="evenodd" clip-rule="evenodd" d="M51.978 18.1932C51.978 18.1932 54.1168 18.2802 56.341 18.5413C51.3367 14.5383 46.589 13.3635 42.7396 13.3635C37.4733 13.3635 33.8939 15.5514 33.6344 15.71L33.6294 15.7131L35.2974 13.0154C35.2974 13.0154 28.6251 12.3628 26.2727 19.542C25.6739 18.0191 25.1179 15.8001 25.1179 15.8001C25.1179 15.8001 21.6535 18.8893 23.2787 24.0235C19.3011 22.5442 13.6125 20.4992 13.3986 20.4557C13.0992 20.4122 13.0137 20.5427 13.0137 20.5427C13.0137 20.5427 12.9281 20.6733 13.1848 20.8908C13.6553 21.2824 22.6372 28.0265 24.6046 29.3318C24.1769 30.8982 24.1769 31.6378 24.6046 32.3775C25.2034 33.3783 25.2462 33.9004 25.1607 34.6401C25.0751 35.3797 24.3053 41.7757 24.1342 42.5589C24.0651 42.8751 23.7312 43.5173 23.3632 44.2252C22.8195 45.2712 22.2012 46.4605 22.2522 46.9535C22.3378 47.78 23.4498 51.3046 24.4335 51.696C25.1607 51.957 26.9571 52.5228 28.1547 52.5228C28.5823 52.5228 28.9673 52.4359 29.1384 52.2618C29.8655 51.6091 30.0793 51.4784 30.5926 51.4784H30.7209C30.8189 51.4784 30.9258 51.4876 31.0417 51.4975C31.1789 51.5093 31.3285 51.5222 31.4908 51.5222C32.1751 51.5222 33.0733 51.3915 33.7149 50.7822C34.1583 50.3312 34.7537 49.8029 35.313 49.3065C35.9407 48.7496 36.523 48.2329 36.7944 47.9107C37.436 47.0838 37.7782 45.9527 37.6071 44.8215C37.4787 43.7772 38.0348 42.8635 38.6763 41.9498C39.489 40.862 40.986 38.9041 40.986 38.9041C43.9372 41.1666 45.7763 44.6039 45.7763 48.4327C45.7763 55.2206 39.9595 60.7027 32.7739 60.7027C31.6619 60.7027 30.5926 60.5723 29.5233 60.311C32.8167 61.4861 35.5968 61.8774 37.8637 61.8774C42.6968 61.8774 45.2631 60.0938 45.2631 60.0938C45.2631 60.0938 44.3649 61.2685 42.9106 62.617H42.9534C50.9517 61.4861 54.8438 54.7854 54.8438 54.7854C54.8438 54.7854 54.5445 56.9608 54.1595 58.44C64.5378 50.5113 63.0967 40.6406 62.9769 39.8199L62.9769 39.8195C62.9737 39.7983 62.9715 39.7831 62.9705 39.7743C63.0232 39.8549 63.4512 40.3835 63.9017 40.94C64.1808 41.2847 64.4685 41.64 64.6811 41.9063C66.3921 23.98 51.978 18.1932 51.978 18.1932ZM35.5968 46.8231C35.4651 46.9907 35.0037 47.4161 34.5641 47.8215L34.5638 47.8218C34.4326 47.9427 34.3033 48.0619 34.1854 48.1719C34.0072 48.3381 33.8238 48.5042 33.6425 48.6686L33.6424 48.6687C33.3014 48.9776 32.9676 49.2802 32.6884 49.5642C32.5173 49.7384 32.1751 49.8253 31.6619 49.8253H31.1914H30.9348H30.7637H30.3787C31.0203 48.9553 32.9023 46.9537 33.5438 46.5186C34.3137 45.9965 34.6986 45.4743 34.2282 44.5606C33.7577 43.6469 32.5173 43.8645 32.5173 43.8645C32.5173 43.8645 33.2444 43.5599 33.886 43.5599C33.0733 43.3423 32.0468 43.5599 31.5764 44.0385C31.2342 44.3576 31.1581 45.2181 31.0821 46.0786C31.0441 46.5088 31.0061 46.9391 30.9348 47.3016C30.7432 48.315 30.1398 48.8747 29.2168 49.7308L29.2166 49.731C29.1092 49.8305 28.9976 49.9341 28.8817 50.0428C28.283 50.6087 27.8553 50.7824 27.5131 50.7824C26.786 50.6521 25.9306 50.4345 25.3318 50.217C24.904 49.6515 24.2625 47.7802 24.0914 46.9972C24.1837 46.6841 24.4753 46.1233 24.7273 45.6388L24.7273 45.6387L24.7277 45.6379C24.8257 45.4494 24.9177 45.2725 24.9896 45.1262L25.061 44.9872C25.5307 44.0721 25.8063 43.5352 25.8878 43.0377C26.0589 42.2981 26.6149 37.7295 26.8288 35.815C27.3848 36.5547 28.1547 37.773 27.9836 38.5562C29.224 36.7723 28.3257 35.0318 27.898 34.3357C27.5131 33.6395 26.9998 32.2472 27.4276 30.7679C27.8553 29.2885 29.395 25.1986 29.395 25.1986C29.395 25.1986 29.9083 26.1123 30.6354 25.9382C31.3625 25.7642 37.2221 16.8011 37.2221 16.8011C37.2221 16.8011 38.8047 20.3254 37.1366 22.8925C35.4257 25.4596 33.7577 25.9382 33.7577 25.9382C33.7577 25.9382 36.1101 26.3733 38.2914 24.7634C39.1896 26.8954 40.045 29.1144 40.0878 29.4191C40.066 29.4707 39.9988 29.6335 39.9014 29.8696L39.9013 29.8698L39.9012 29.87L39.901 29.8707C39.4231 31.0286 38.2196 33.9449 38.0776 34.1617C37.992 34.2487 37.3932 34.4227 36.9655 34.5097C36.2384 34.7273 35.8107 34.8578 35.6396 34.9884C35.3402 35.2494 33.9715 39.0783 33.3299 40.9492C32.5601 41.1668 31.7902 41.6019 31.2342 42.4721C31.5336 42.2546 32.4745 42.124 33.1589 42.037C33.7577 41.9935 35.5968 42.9942 36.0673 44.8652V44.9522C36.1528 45.6484 35.939 46.301 35.5968 46.8231ZM31.9404 45.7909C31.9171 46.2121 31.8791 46.8999 31.5761 47.3451C31.6054 47.3153 31.6948 47.2192 31.8117 47.0935C32.0364 46.852 32.3629 46.5011 32.5599 46.3007C32.6931 46.1788 32.8428 46.0822 32.9859 45.9899C33.3024 45.7857 33.5864 45.6025 33.5864 45.213C33.5864 44.6038 32.7737 44.4733 32.4315 44.5603C32.0894 44.6474 32.0038 45.213 31.961 45.5176C31.9519 45.5824 31.9467 45.6769 31.9404 45.7909ZM48.6421 39.0348C49.0698 36.8157 49.1125 34.9013 48.9841 33.3349C50.6524 35.5975 51.6787 38.3386 51.978 41.1668C52.021 41.5149 52.363 41.8629 52.7054 42.211C53.0047 42.4721 53.3467 42.8202 53.3467 43.0377C53.3467 44.0385 53.2612 45.0392 53.0901 46.0399C53.0496 46.1635 52.7021 46.3653 52.4111 46.5341L52.363 46.562C51.9353 46.7796 51.5506 46.9971 51.4648 47.3454C50.5239 50.6955 48.5136 53.6543 45.8191 55.7428C49.7969 51.5224 51.7214 44.5606 48.6421 39.0348ZM51.8074 47.4758C50.8665 50.9132 48.7277 53.9588 45.9476 56.1342C51.8501 53.2627 55.9134 47.1279 55.9134 40.0791C55.9134 30.8984 49.07 23.3276 40.3018 22.3704C40.0024 22.849 39.7031 23.2841 39.4037 23.6322C40.0452 25.2421 41.7133 29.4626 41.7133 29.6801C41.7133 29.9412 40.9006 32.0732 40.8151 32.1602C40.7296 32.2037 39.7458 32.2907 39.3609 32.2907C38.9332 33.335 38.5054 34.3357 38.4199 34.4663C38.2916 34.6403 37.9067 34.7708 37.094 34.9884C37.0072 35.0149 36.9116 35.0432 36.8136 35.0722C36.4288 35.186 36.0074 35.3106 35.9392 35.38C35.7253 35.6411 34.5705 38.7303 33.8006 40.9058C34.8271 40.7317 35.7253 40.9493 35.9392 41.0363C37.6073 37.8165 38.9332 36.0761 39.2753 36.0761C39.3117 36.0715 39.39 36.0743 39.5029 36.0782C40.4526 36.1115 43.8488 36.2305 45.2633 32.7694C46.7799 28.9979 44.6449 25.7753 44.4987 25.5547C44.4965 25.5513 44.4947 25.5486 44.4934 25.5467C44.4948 25.5474 44.4971 25.5485 44.5002 25.55C44.6892 25.6433 48.0145 27.2847 48.8562 32.4213C50.7807 34.9014 52.0213 37.9036 52.3633 41.0798C52.3633 41.2424 52.5545 41.4537 52.7404 41.659C52.8033 41.7284 52.8655 41.7971 52.9195 41.863L52.9206 41.8641C53.3049 42.2554 53.6892 42.6466 53.6892 43.0378C53.6892 44.082 53.6038 45.1263 53.4326 46.127C53.3469 46.4751 52.9195 46.7362 52.4917 46.9537C52.4332 46.9934 52.3681 47.0354 52.3018 47.078C52.0774 47.2225 51.8404 47.3752 51.8074 47.4758Z" fill="#1B314F"/>
<path d="M34.5704 32.6389C35.383 31.6817 34.9553 29.8978 33.4583 29.5932C33.8433 28.6795 34.3993 26.8521 34.3993 26.8521C34.3993 26.8521 30.0366 33.8137 29.6517 33.9442C29.2667 34.0747 28.8818 32.5519 28.8818 32.5519C28.0692 35.7281 30.2505 36.1632 30.5071 35.1625C31.7047 34.8579 33.7577 33.5526 34.5704 32.6389Z" fill="#1B314F"/>
<path d="M30.8491 34.3353L33.0732 30.4629C33.0732 30.4629 34.3563 31.1155 33.7148 32.1598C32.9021 33.3781 30.8491 34.3353 30.8491 34.3353Z" fill="#FFD923"/>
<path d="M58.3511 52.2618C57.7095 53.1321 56.9825 54.0459 56.127 54.9158C61.6447 44.1254 56.3839 34.2485 56.17 33.8569C56.5547 34.2485 56.9398 34.6836 57.2821 35.0752C61.5162 39.8614 62.0294 47.0405 58.3511 52.2618Z" fill="#D82122"/>
<path d="M63.4835 38.3819C61.5586 33.1172 58.8213 28.6356 52.7907 24.5892C46.9738 20.6732 40.7292 20.9778 40.3871 21.0213C40.3443 21.0213 40.3015 21.0213 40.3015 21.0213C40.5154 20.9343 40.7292 20.8908 40.9431 20.8473C42.269 20.4122 43.9798 20.0641 45.6907 19.8466C50.2246 19.1939 54.801 20.7603 57.9231 24.1106C57.9661 24.154 57.9661 24.154 58.0088 24.1976C61.5586 28.0265 63.3978 32.8126 63.4835 38.3819Z" fill="#D82122"/>
<path d="M51.4223 16.8445C45.0494 15.6262 40.9434 16.2354 37.9922 17.3666C37.9066 17.0185 37.6072 16.3224 37.3506 15.7568C36.4524 16.8445 35.5114 18.1498 34.9127 18.9765C33.2874 20.1078 32.603 21.1955 32.603 21.1955C33.544 17.9323 36.2813 15.4957 39.6175 14.8865C40.5584 14.7125 41.5849 14.6255 42.697 14.6255C45.6482 14.669 48.5992 15.4087 51.4223 16.8445Z" fill="#D82122"/>
<path d="M27.8552 25.1988C22.851 25.0248 24.5191 19.1074 24.6046 18.7593C24.6046 18.8028 24.9468 23.4149 27.8552 25.1988Z" fill="#D82122"/>
<path d="M32.7741 14.5383C28.9247 16.8879 29.6945 22.5007 29.6945 22.5007C26.0162 16.8009 32.4747 14.6689 32.7741 14.5383Z" fill="#D82122"/>
<path d="M26.4439 26.765C26.7005 26.9826 26.9571 27.3742 26.6577 27.9398C26.4866 28.2444 26.23 28.2009 25.845 28.0268C25.3318 27.7658 22.2523 25.9383 19.4722 24.0674C22.6372 25.1987 25.845 26.4169 26.3583 26.678C26.3583 26.678 26.4011 26.7215 26.4439 26.765Z" fill="white"/>
<defs>
<filter id="filter0_d_65_5185" x="0" y="0" width="83" height="83" filterUnits="userSpaceOnUse" color-interpolation-filters="sRGB">
<feFlood flood-opacity="0" result="BackgroundImageFix"/>
<feColorMatrix in="SourceAlpha" type="matrix" values="0 0 0 0 0 0 0 0 0 0 0 0 0 0 0 0 0 0 127 0" result="hardAlpha"/>
<feOffset dy="4"/>
<feGaussianBlur stdDeviation="2"/>
<feComposite in2="hardAlpha" operator="out"/>
<feColorMatrix type="matrix" values="0 0 0 0 0 0 0 0 0 0 0 0 0 0 0 0 0 0 0.25 0"/>
<feBlend mode="normal" in2="BackgroundImageFix" result="effect1_dropShadow_65_5185"/>
<feBlend mode="normal" in="SourceGraphic" in2="effect1_dropShadow_65_5185" result="shape"/>
</filter>
</defs>
</svg>
