<svg width="83" height="83" viewBox="0 0 83 83" fill="none" xmlns="http://www.w3.org/2000/svg">
<g filter="url(#filter0_d_65_5187)">
<rect x="4" width="75" height="75" rx="25" fill="#F7E6D5"/>
</g>
<path d="M66.6392 61.9399C63.3788 65.201 59.4967 67.7717 55.224 69.4989C50.9513 71.2261 46.3754 72.0744 41.7686 71.9935C37.1907 72.0836 32.6425 71.2378 28.4019 69.5078C24.1612 67.7777 20.3173 65.1997 17.1048 61.9313C13.8167 58.7242 11.2233 54.8731 9.48623 50.6179C7.74917 46.3627 6.90569 41.7947 7.00836 37.1986C7.00836 27.1422 10.3796 18.7627 17.122 12.0604C20.3365 8.79283 24.1823 6.21608 28.4244 4.48752C32.6665 2.75895 37.2158 1.91485 41.7945 2.00678C46.4003 1.92862 50.9748 2.77914 55.2459 4.50775C59.517 6.23635 63.3975 8.80774 66.6565 12.069C73.5482 18.7771 76.9941 27.1594 76.9941 37.2159C77.0812 41.832 76.2051 46.4155 74.4221 50.6729C72.639 54.9303 69.9881 58.7679 66.6392 61.9399Z" fill="#F7E6D5"/>
<path d="M53.2044 36.2193C53.557 36.1271 53.9151 36.3495 54.0019 36.7078L54.5772 39.0844C54.664 39.4372 54.447 39.8007 54.0942 39.8875C53.7415 39.9797 53.3834 39.7573 53.2966 39.3992L52.7214 37.0225C52.6346 36.6697 52.8516 36.3061 53.2044 36.2193ZM35.3791 18.8392C35.1785 18.5245 35.2707 18.1175 35.5636 17.9167L37.5931 16.5764C37.9024 16.3757 38.3093 16.4679 38.5101 16.7664C38.7108 17.0811 38.6186 17.488 38.3257 17.6888L36.2963 19.0291C35.9923 19.2353 35.5854 19.1431 35.3791 18.8392Z" fill="white"/>
<path fill-rule="evenodd" clip-rule="evenodd" d="M45.8631 27.1478C43.5146 26.6185 40.9941 27.0536 38.9285 28.4543C42.0377 27.4124 45.6136 28.1342 48.0879 30.6357C51.5716 34.1573 51.5716 39.8928 48.0879 43.4144C47.6701 43.8377 47.2143 44.2121 46.7313 44.5322C48.0065 44.0926 49.2112 43.3765 50.2258 42.3509C52.6892 39.8606 53.4107 36.2632 52.3901 33.1246C49.5482 32.0036 47.2216 29.8602 45.8631 27.1478Z" fill="#FFAE54"/>
<path d="M60.5186 47.353C54.8717 57.7902 41.9178 61.6031 31.6039 55.9086C21.2862 50.2118 17.4826 37.1237 23.1328 26.6804C26.8505 19.8091 33.7348 15.8043 40.9489 15.4962C41.9062 15.4553 42.6479 15.9597 43.1634 16.8541C43.6912 17.7702 43.9264 19.0281 43.8005 20.2178C43.7518 20.6786 43.727 21.1463 43.727 21.6194C43.727 23.8402 44.2756 25.9328 45.2446 27.7693C40.7591 26.0756 35.5976 27.9333 33.241 32.2843C30.659 37.0516 32.3964 43.058 37.1303 45.6741C41.8701 48.2933 47.8262 46.5203 50.4102 41.7494C51.8563 39.0737 51.9453 36.0062 50.9071 33.3678C52.7112 34.2936 54.7563 34.816 56.9235 34.816C58.1384 34.816 59.3163 34.6516 60.4355 34.3434C61.075 34.1672 61.7605 34.2426 62.2728 34.505C62.768 34.7586 63.0627 35.1571 63.095 35.6714C63.3424 39.5998 62.5279 43.6428 60.5186 47.353Z" fill="url(#paint0_radial_65_5187)"/>
<path fill-rule="evenodd" clip-rule="evenodd" d="M42.4701 17.2535C42.0647 16.5501 41.5717 16.2703 40.983 16.2955C34.041 16.592 27.4157 20.4454 23.8364 27.0611C18.3931 37.1219 22.0611 49.7258 31.9905 55.2082C41.9094 60.6847 54.3698 57.024 59.8094 46.9825L59.8095 46.9822L59.8147 46.9726L59.815 46.972C61.7506 43.3981 62.5348 39.5051 62.2966 35.7217L62.2965 35.7216C62.2849 35.5359 62.197 35.365 61.9081 35.2171L61.9079 35.217C61.5826 35.0504 61.104 34.989 60.648 35.1147L60.6478 35.1147C59.4601 35.4417 58.2108 35.616 56.9235 35.616C55.2542 35.616 53.6521 35.3235 52.1663 34.7866C52.6763 37.1838 52.3765 39.7687 51.137 42.0867L51.1362 42.0887L51.1136 42.1304C48.3202 47.2879 41.8763 49.2108 36.7433 46.3743L36.7433 46.3743C31.6219 43.544 29.7481 37.0536 32.5374 31.9033L32.5375 31.9033C34.7903 27.744 39.4159 25.6889 43.8152 26.5364C43.2409 25.006 42.9269 23.3488 42.9269 21.6194C42.9269 21.1182 42.9533 20.6225 43.0049 20.1337L43.0049 20.1336C43.1157 19.0864 42.9017 18.0026 42.4702 17.2536M40.9147 14.6969C42.2405 14.6403 43.2309 15.3692 43.8565 16.4547L43.8565 16.4548C44.4805 17.5379 44.7369 18.9697 44.5961 20.3019C44.5503 20.7347 44.5269 21.1743 44.5269 21.6194C44.5269 23.707 45.0423 25.6718 45.9521 27.396L46.9375 29.2637L44.9619 28.5178C40.8492 26.9648 36.1097 28.6676 33.9444 32.6653C31.5698 37.0497 33.1709 42.572 37.5172 44.9739C41.8537 47.3703 47.3067 45.7602 49.6902 41.3989L49.7067 41.3683C51.0355 38.9095 51.1184 36.0898 50.1626 33.6607L49.3864 31.6882L51.2723 32.656C52.966 33.5252 54.8862 34.016 56.9235 34.016C58.0658 34.016 59.1722 33.8614 60.2229 33.5722C61.0458 33.3454 61.9382 33.4349 62.6373 33.7929C63.339 34.1522 63.8404 34.7783 63.8934 35.6212L63.095 35.6714L63.8934 35.6211C63.8934 35.6211 63.8934 35.6212 63.8934 35.6212C64.1496 39.6909 63.3065 43.8802 61.2275 47.7238L61.2325 47.7138L61.2327 47.7135L60.5185 47.353L60.5291 47.3587L60.5291 47.3588L61.222 47.734C55.3651 58.5594 41.9229 62.5198 31.2172 56.6089L31.6038 55.9086L31.2172 56.6089C20.5113 50.6978 16.572 37.1254 22.4291 26.2998C26.2851 19.1728 33.4286 15.0167 40.9147 14.6969L40.942 15.3366L40.9147 14.6969ZM61.222 47.734L61.2274 47.724L61.2275 47.7238C61.2256 47.7272 61.2238 47.7306 61.222 47.734Z" fill="#AC562A"/>
<path d="M55.0545 43.0564L55.841 42.7801C55.841 42.7803 55.841 42.7803 55.841 42.7804C56.3958 44.3604 55.6772 45.7361 55.1481 46.7489C55.1318 46.7802 55.1156 46.811 55.0997 46.8417C54.779 47.4572 54.5232 47.9581 54.4069 48.4587C54.2241 49.2493 54.2516 49.9851 54.4761 50.5401C54.6861 51.0595 55.0837 51.4699 55.7982 51.6594C56.2739 51.7829 57.0039 51.6017 57.9644 51.0085C61.6629 46.6296 63.3493 41.1144 63.022 35.6984C62.9909 35.1848 62.6982 34.7856 62.2049 34.5305C61.6948 34.2665 61.0112 34.1881 60.3718 34.3607C59.2717 34.6578 58.1153 34.8161 56.9233 34.8161C54.7259 34.8161 52.6538 34.279 50.8314 33.3289C51.8981 35.97 51.7884 38.9763 50.4796 41.5335C50.2669 41.9493 50.0224 42.3531 49.7461 42.7417C50.2973 42.5712 50.991 42.2475 51.8477 41.7107C53.1337 40.9075 54.5825 41.7052 55.0545 43.0564ZM55.0545 43.0564C55.4885 44.2918 54.9247 45.3737 54.3605 46.4565C54.05 47.0524 53.7394 47.6487 53.5949 48.2709L55.0545 43.0564ZM40.0465 27.3135L40.0119 27.3197L39.9782 27.3288C37.8841 27.885 36.201 27.6179 34.9127 26.9318C33.6118 26.2391 32.6487 25.0843 32.0749 23.7664C31.499 22.4438 31.3361 21.004 31.5849 19.7895C31.8308 18.5886 32.4614 17.6607 33.4434 17.1895C36.0454 16.0772 38.8204 15.5095 41.5981 15.4871C42.3873 15.4808 43.0129 15.9164 43.4399 16.6823C43.8767 17.4657 44.0523 18.5257 43.8952 19.5106C43.7849 20.2014 43.7268 20.9087 43.7268 21.6195C43.7268 23.8608 44.2855 25.9717 45.2713 27.8203C43.6023 27.1729 41.7927 27.0038 40.0465 27.3135Z" fill="#AC562A" stroke="#AC562A" stroke-width="1.0716"/>
<path d="M25.6689 33.1491C26.2827 33.1491 26.7802 32.6516 26.7802 32.0378C26.7802 31.4241 26.2827 30.9265 25.6689 30.9265C25.0552 30.9265 24.5576 31.4241 24.5576 32.0378C24.5576 32.6516 25.0552 33.1491 25.6689 33.1491Z" fill="#AC562A"/>
<path d="M41.7822 52.5971C42.3959 52.5971 42.8935 52.0995 42.8935 51.4858C42.8935 50.8721 42.3959 50.3745 41.7822 50.3745C41.1684 50.3745 40.6709 50.8721 40.6709 51.4858C40.6709 52.0995 41.1684 52.5971 41.7822 52.5971Z" fill="#AC562A"/>
<path d="M34.9753 54.2638C35.9726 54.2638 36.7811 53.4553 36.7811 52.4579C36.7811 51.4606 35.9726 50.6521 34.9753 50.6521C33.9779 50.6521 33.1694 51.4606 33.1694 52.4579C33.1694 53.4553 33.9779 54.2638 34.9753 54.2638Z" fill="#AC562A"/>
<defs>
<filter id="filter0_d_65_5187" x="0" y="0" width="83" height="83" filterUnits="userSpaceOnUse" color-interpolation-filters="sRGB">
<feFlood flood-opacity="0" result="BackgroundImageFix"/>
<feColorMatrix in="SourceAlpha" type="matrix" values="0 0 0 0 0 0 0 0 0 0 0 0 0 0 0 0 0 0 127 0" result="hardAlpha"/>
<feOffset dy="4"/>
<feGaussianBlur stdDeviation="2"/>
<feComposite in2="hardAlpha" operator="out"/>
<feColorMatrix type="matrix" values="0 0 0 0 0 0 0 0 0 0 0 0 0 0 0 0 0 0 0.25 0"/>
<feBlend mode="normal" in2="BackgroundImageFix" result="effect1_dropShadow_65_5187"/>
<feBlend mode="normal" in="SourceGraphic" in2="effect1_dropShadow_65_5187" result="shape"/>
</filter>
<radialGradient id="paint0_radial_65_5187" cx="0" cy="0" r="1" gradientUnits="userSpaceOnUse" gradientTransform="translate(41.8268 37.0135) rotate(90) scale(22.3701 22.1447)">
<stop offset="0.333505" stop-color="#F7B450"/>
<stop offset="0.64773" stop-color="#FFC977"/>
<stop offset="1" stop-color="#FF9900"/>
</radialGradient>
</defs>
</svg>
