<svg width="75" height="75" viewBox="0 0 75 75" fill="none" xmlns="http://www.w3.org/2000/svg">
<rect width="75" height="75" rx="25" fill="#FFF706"/>
<path fill-rule="evenodd" clip-rule="evenodd" d="M42.524 16.7854C42.3881 17.1212 42.2267 17.4317 42.0486 17.7115C51.2902 19.784 57.844 27.4558 57.7412 40.7907H52.1167C52.2039 29.4878 45.7083 23.9071 37.2091 23.7316C27.9536 23.5405 22.8304 29.7672 22.2373 40.7907H16.6123C17.333 27.4003 23.0576 19.2413 33.1136 17.6375C32.9528 17.4016 32.6563 16.9247 32.5242 16.6472C31.7359 14.9934 31.848 13.2903 32.7744 12.8431C33.5151 12.4857 34.5521 13.0404 35.341 14.123C35.3307 13.9637 35.3249 13.8019 35.3249 13.6376C35.3249 11.322 36.3761 9.44458 37.6731 9.44458C38.9699 9.44458 40.0212 11.322 40.0212 13.6376C40.0212 13.6936 40.0202 13.749 40.0189 13.8044C40.7152 12.9692 41.5277 12.5552 42.1477 12.8195C42.7782 13.0883 43.0464 13.9906 42.9189 15.1016C42.8876 15.6281 42.7582 16.2062 42.524 16.7854ZM32.5368 30.2391C31.8589 30.2391 31.3094 30.8559 31.3094 31.6163V34.999C31.3094 35.7596 31.8589 36.3761 32.5368 36.3761C33.2146 36.3761 33.7641 35.7596 33.7641 34.999V31.6163C33.7641 30.8559 33.2146 30.2391 32.5368 30.2391ZM41.1285 31.6163C41.1285 30.8559 41.6782 30.2391 42.3559 30.2391C43.0338 30.2391 43.5834 30.8559 43.5834 31.6163V34.999C43.5834 35.7596 43.0338 36.3761 42.3559 36.3761C41.6782 36.3761 41.1285 35.7596 41.1285 34.999V31.6163Z" fill="black"/>
<path fill-rule="evenodd" clip-rule="evenodd" d="M20.8026 51.3646C20.6593 51.7591 20.4631 52.1003 20.2142 52.3883C19.965 52.6763 19.6708 52.9028 19.3316 53.0681C18.9923 53.2334 18.6319 53.3161 18.2501 53.3161H16.4529V46.8219H18.2501C18.6319 46.8219 18.9923 46.9073 19.3316 47.0779C19.6708 47.2487 19.965 47.4805 20.2142 47.7738C20.4631 48.0669 20.6593 48.4136 20.8026 48.8134C20.9457 49.2132 21.0173 49.6426 21.0173 50.101C21.0173 50.5489 20.9457 50.9701 20.8026 51.3646ZM23.4108 47.8857C23.119 47.1979 22.7215 46.6034 22.2181 46.1022C21.7143 45.6011 21.1205 45.204 20.4368 44.9105C19.753 44.6172 19.0239 44.4707 18.2501 44.4707H13.7178V55.6673H18.2501C19.0239 55.6673 19.753 55.5235 20.4368 55.2355C21.1205 54.9475 21.7143 54.553 22.2181 54.0518C22.7215 53.5506 23.119 52.959 23.4108 52.2763C23.7021 51.594 23.848 50.8687 23.848 50.101C23.848 49.312 23.7021 48.5734 23.4108 47.8857ZM33.5871 51.3868C33.443 51.7837 33.2448 52.1239 32.9926 52.4073C32.7406 52.691 32.4395 52.9153 32.0894 53.0802C31.7394 53.2451 31.3637 53.3277 30.9622 53.3277C30.5608 53.3277 30.1852 53.2451 29.8351 53.0802C29.4851 52.9153 29.1842 52.691 28.932 52.4073C28.6798 52.1239 28.4815 51.7837 28.3375 51.3868C28.1935 50.9899 28.1214 50.5646 28.1214 50.1109C28.1214 49.657 28.1935 49.2318 28.3375 48.835C28.4815 48.4379 28.6798 48.0977 28.932 47.8142C29.1842 47.5306 29.4851 47.3063 29.8351 47.1414C30.1852 46.9765 30.5608 46.8938 30.9622 46.8938C31.3637 46.8938 31.7394 46.9765 32.0894 47.1414C32.4395 47.3063 32.7406 47.5306 32.9926 47.8142C33.2448 48.0977 33.443 48.4379 33.5871 48.835C33.7311 49.2318 33.8032 49.657 33.8032 50.1109C33.8032 50.5646 33.7311 50.9899 33.5871 51.3868ZM36.2105 47.8746C35.9214 47.1872 35.5264 46.5926 35.0257 46.0912C34.5251 45.5896 33.9339 45.1943 33.2526 44.9047C32.5711 44.6154 31.8381 44.4707 31.0534 44.4707C30.2689 44.4707 29.5333 44.6154 28.8469 44.9047C28.1601 45.1943 27.5664 45.5896 27.0658 46.0912C26.5651 46.5926 26.1701 47.1872 25.8812 47.8746C25.592 48.5622 25.4475 49.2936 25.4475 50.0691C25.4475 50.8445 25.592 51.5759 25.8812 52.2634C26.1701 52.951 26.5651 53.5455 27.0658 54.0468C27.5664 54.5484 28.1601 54.9438 28.8469 55.2333C29.5333 55.5226 30.2689 55.6673 31.0534 55.6673C31.8381 55.6673 32.5711 55.5226 33.2526 55.2333C33.9339 54.9438 34.5251 54.5484 35.0257 54.0468C35.5264 53.5455 35.9214 52.951 36.2105 52.2634C36.4995 51.5759 36.6441 50.8445 36.6441 50.0691C36.6441 49.2936 36.4995 48.5622 36.2105 47.8746ZM56.9851 52.4073C57.2374 52.1239 57.4357 51.7837 57.5796 51.3868C57.724 50.9899 57.796 50.5646 57.796 50.1109C57.796 49.657 57.724 49.2318 57.5796 48.835C57.4357 48.4379 57.2374 48.0977 56.9851 47.8142C56.7333 47.5306 56.4319 47.3063 56.0819 47.1414C55.7323 46.9765 55.3565 46.8938 54.955 46.8938C54.5535 46.8938 54.1777 46.9765 53.8277 47.1414C53.4781 47.3063 53.1772 47.5306 52.9244 47.8142C52.6726 48.0977 52.4743 48.4379 52.3299 48.835C52.186 49.2318 52.114 49.657 52.114 50.1109C52.114 50.5646 52.186 50.9899 52.3299 51.3868C52.4743 51.7837 52.6726 52.1239 52.9244 52.4073C53.1772 52.691 53.4781 52.9153 53.8277 53.0802C54.1777 53.2451 54.5535 53.3277 54.955 53.3277C55.3565 53.3277 55.7323 53.2451 56.0819 53.0802C56.4319 52.9153 56.7333 52.691 56.9851 52.4073ZM59.0186 46.0912C59.5193 46.5926 59.9146 47.1872 60.2033 47.8746C60.4926 48.5622 60.6369 49.2936 60.6369 50.0691C60.6369 50.8445 60.4926 51.5759 60.2033 52.2634C59.9146 52.951 59.5193 53.5455 59.0186 54.0468C58.5179 54.5484 57.9268 54.9438 57.2452 55.2333C56.5641 55.5226 55.831 55.6673 55.0464 55.6673C54.2618 55.6673 53.5262 55.5226 52.8398 55.2333C52.1529 54.9438 51.5593 54.5484 51.0586 54.0468C50.5579 53.5455 50.1632 52.951 49.8739 52.2634C49.5847 51.5759 49.4403 50.8445 49.4403 50.0691C49.4403 49.2936 49.5847 48.5622 49.8739 47.8746C50.1632 47.1872 50.5579 46.5926 51.0586 46.0912C51.5593 45.5896 52.1529 45.1943 52.8398 44.9047C53.5262 44.6154 54.2618 44.4707 55.0464 44.4707C55.831 44.4707 56.5641 44.6154 57.2452 44.9047C57.9268 45.1943 58.5179 45.5896 59.0186 46.0912ZM45.2673 51.4529C45.1258 51.8488 44.9319 52.1912 44.6859 52.4802C44.4394 52.7692 44.1487 52.9965 43.8133 53.1625C43.4778 53.3283 43.1215 53.4113 42.7443 53.4113H40.9679V46.8938H42.7443C43.1215 46.8938 43.4778 46.9795 43.8133 47.1507C44.1487 47.3221 44.4394 47.5548 44.6859 47.8491C44.9319 48.1433 45.1258 48.4912 45.2673 48.8924C45.4088 49.2937 45.4797 49.7246 45.4797 50.1846C45.4797 50.6342 45.4088 51.057 45.2673 51.4529ZM47.9367 47.8857C47.645 47.1979 47.2473 46.6034 46.7442 46.1022C46.2401 45.6011 45.6465 45.204 44.9625 44.9105C44.279 44.6172 43.5498 44.4707 42.7759 44.4707H38.2436V55.6673H42.7759C43.5498 55.6673 44.279 55.5235 44.9625 55.2355C45.6465 54.9475 46.2401 54.553 46.7442 54.0518C47.2473 53.5506 47.645 52.959 47.9367 52.2763C48.2279 51.594 48.3737 50.8687 48.3737 50.101C48.3737 49.312 48.2279 48.5734 47.9367 47.8857Z" fill="black"/>
</svg>
