<svg width="83" height="83" viewBox="0 0 83 83" fill="none" xmlns="http://www.w3.org/2000/svg">
<g filter="url(#filter0_d_65_5179)">
<rect x="4" width="75" height="75" rx="25" fill="#01172D"/>
</g>
<path opacity="0.1" fill-rule="evenodd" clip-rule="evenodd" d="M40.1856 49.126C38.2766 49.126 36.4256 48.8646 34.666 48.3832C34.8735 50.5412 35.2885 52.6785 35.911 54.7743C42.3271 53.2305 48.1745 49.873 52.7188 45.0797L52.6234 44.9801C49.1581 47.5822 44.8544 49.126 40.1856 49.126Z" fill="black"/>
<path fill-rule="evenodd" clip-rule="evenodd" d="M51.2705 20.6317L41.5137 15C38.6667 18.4363 36.5294 22.3539 35.1641 26.5165C42.6674 28.081 49.2992 32.0278 54.2254 37.5308C57.147 40.7927 59.4711 44.6066 61.0273 48.7899V26.2675L51.2747 20.6358L51.2705 20.6317Z" fill="url(#paint0_linear_65_5179)"/>
<path opacity="0.3" fill-rule="evenodd" clip-rule="evenodd" d="M38.5505 19.1626C38.5713 19.1252 38.5962 19.092 38.6169 19.0588L38.5505 19.1626Z" fill="#F7F26B"/>
<path opacity="0.3" fill-rule="evenodd" clip-rule="evenodd" d="M38.8244 18.7227C38.7539 18.8347 38.6875 18.9468 38.6169 19.0588C50.8638 23.8023 59.7989 35.1819 61.0232 48.7858V48.7941C60.7576 40.357 56.8897 32.5341 51.1045 26.7489C47.6185 23.2628 43.4186 20.5113 38.8244 18.7227Z" fill="#F7F26B"/>
<path fill-rule="evenodd" clip-rule="evenodd" d="M38.6169 19.0588C37.1727 21.4119 36.019 23.9186 35.1641 26.5207C42.6674 28.0852 49.2992 32.032 54.2254 37.535C57.147 40.7969 59.4669 44.6025 61.0232 48.7858C59.7989 35.1819 50.8638 23.8024 38.6169 19.0588Z" fill="url(#paint1_linear_65_5179)"/>
<path fill-rule="evenodd" clip-rule="evenodd" d="M35.1557 48.5326C30.8687 49.4332 26.4074 49.5411 22.0042 48.7941L31.761 54.4257L41.5178 60.0574L51.2705 54.4257L61.0273 48.7941C59.4752 44.6108 57.1511 40.7969 54.2253 37.5349C49.1166 43.2496 42.3852 47.0178 35.1557 48.5326Z" fill="url(#paint2_linear_65_5179)"/>
<path opacity="0.3" fill-rule="evenodd" clip-rule="evenodd" d="M35.1557 48.5368C30.8687 49.4373 26.4074 49.5452 22.0042 48.7982C29.3622 52.7325 38.1562 53.3425 46.058 51.226C50.8181 49.9519 55.3043 47.6901 59.1515 44.6066C57.7985 42.0502 56.1427 39.6764 54.2253 37.5391C49.1166 43.2537 42.3852 47.022 35.1557 48.5368Z" fill="#5EFAF7"/>
<path fill-rule="evenodd" clip-rule="evenodd" d="M35.1557 48.5326C30.8729 49.4332 26.4115 49.5411 22.0166 48.7941C34.4087 54.5378 48.7348 52.4876 58.9647 44.2539C57.6491 41.8302 56.0555 39.5726 54.2253 37.5349C49.1166 43.2496 42.3852 47.0178 35.1557 48.5326Z" fill="url(#paint3_linear_65_5179)"/>
<path fill-rule="evenodd" clip-rule="evenodd" d="M22.0041 26.2675V48.7941C26.4032 49.5411 30.8687 49.4332 35.1557 48.5326C32.7611 41.2534 32.8649 33.5384 35.164 26.5165C36.5294 22.3539 38.6667 18.4363 41.5136 15L31.7568 20.6317L22 26.2633L22.0041 26.2675Z" fill="url(#paint4_linear_65_5179)"/>
<path opacity="0.3" fill-rule="evenodd" clip-rule="evenodd" d="M27.3869 34.6174C26.1128 39.3775 25.8264 44.3908 26.5734 49.263C29.4661 49.3709 32.3504 49.1219 35.1558 48.5326C32.7612 41.2534 32.865 33.5384 35.1641 26.5165C36.5295 22.3539 38.6668 18.4363 41.5137 15C34.3299 19.6356 29.5034 26.7157 27.3827 34.6174H27.3869Z" fill="#EEFA72"/>
<path opacity="0.2" fill-rule="evenodd" clip-rule="evenodd" d="M35.1641 26.5206C37.2723 26.9605 39.31 27.5872 41.2605 28.384C39.6295 19.7518 41.5054 15.0083 41.5054 15.0083C38.6626 18.4446 36.5253 22.3581 35.1599 26.5206H35.1641Z" fill="#01052D"/>
<path fill-rule="evenodd" clip-rule="evenodd" d="M26.9677 49.2796C29.7275 49.3502 32.4749 49.097 35.1558 48.5368C32.7612 41.2575 32.865 33.5425 35.1641 26.5206C36.5295 22.3622 38.6626 18.4446 41.5096 15.0083C30.3376 22.8685 24.9549 36.2982 26.9677 49.2755V49.2796Z" fill="url(#paint5_linear_65_5179)"/>
<path opacity="0.2" fill-rule="evenodd" clip-rule="evenodd" d="M26.9677 49.2796C27.5114 49.2921 28.0551 49.2962 28.5987 49.2838C25.7227 31.4633 35.3301 20.1793 41.4889 15.0249C30.3335 22.8851 24.955 36.3106 26.9677 49.2796Z" fill="#01052D"/>
<path opacity="0.2" fill-rule="evenodd" clip-rule="evenodd" d="M49.5647 41.8925C57.8524 44.7975 61.023 48.7941 61.023 48.7941C59.4709 44.6149 57.1469 40.8052 54.2252 37.5432C52.7893 39.1493 51.2289 40.6018 49.5605 41.8925H49.5647Z" fill="#01052D"/>
<path opacity="0.2" fill-rule="evenodd" clip-rule="evenodd" d="M22.0042 48.7941C26.4032 49.5369 30.8604 49.4332 35.1433 48.5326C34.471 46.4866 33.9937 44.4074 33.7115 42.3199C27.0506 48.047 22.0042 48.7941 22.0042 48.7941Z" fill="#01052D"/>
<path opacity="0.2" fill-rule="evenodd" clip-rule="evenodd" d="M38.7289 19.1251C38.4426 19.5899 38.1687 20.0589 37.9072 20.532C54.6943 26.9729 59.6453 40.8881 61.0273 48.7857C59.7989 35.2316 50.9136 23.8936 38.7331 19.1251H38.7289Z" fill="#01052D"/>
<path opacity="0.2" fill-rule="evenodd" clip-rule="evenodd" d="M22.0042 48.7941C34.3921 54.5254 48.7057 52.4711 58.9315 44.2415C58.6701 43.7642 58.4003 43.2911 58.1181 42.8263C44.124 54.2265 29.549 51.5497 22.0042 48.7941Z" fill="#01052D"/>
<defs>
<filter id="filter0_d_65_5179" x="0" y="0" width="83" height="83" filterUnits="userSpaceOnUse" color-interpolation-filters="sRGB">
<feFlood flood-opacity="0" result="BackgroundImageFix"/>
<feColorMatrix in="SourceAlpha" type="matrix" values="0 0 0 0 0 0 0 0 0 0 0 0 0 0 0 0 0 0 127 0" result="hardAlpha"/>
<feOffset dy="4"/>
<feGaussianBlur stdDeviation="2"/>
<feComposite in2="hardAlpha" operator="out"/>
<feColorMatrix type="matrix" values="0 0 0 0 0 0 0 0 0 0 0 0 0 0 0 0 0 0 0.25 0"/>
<feBlend mode="normal" in2="BackgroundImageFix" result="effect1_dropShadow_65_5179"/>
<feBlend mode="normal" in="SourceGraphic" in2="effect1_dropShadow_65_5179" result="shape"/>
</filter>
<linearGradient id="paint0_linear_65_5179" x1="65.2272" y1="45.3246" x2="37.6085" y2="14.8049" gradientUnits="userSpaceOnUse">
<stop stop-color="#10BDCA"/>
<stop offset="1" stop-color="#53FDCA"/>
</linearGradient>
<linearGradient id="paint1_linear_65_5179" x1="65.3766" y1="47.6404" x2="36.517" y2="20.7106" gradientUnits="userSpaceOnUse">
<stop stop-color="#117C60"/>
<stop offset="1" stop-color="#1AC688"/>
</linearGradient>
<linearGradient id="paint2_linear_65_5179" x1="63.7248" y1="43.4944" x2="21.1907" y2="57.7167" gradientUnits="userSpaceOnUse">
<stop stop-color="#10BDCA"/>
<stop offset="1" stop-color="#53FDCA"/>
</linearGradient>
<linearGradient id="paint3_linear_65_5179" x1="61.5959" y1="40.1536" x2="7.8773" y2="59.0738" gradientUnits="userSpaceOnUse">
<stop stop-color="#117C60"/>
<stop offset="1" stop-color="#1AC688"/>
</linearGradient>
<linearGradient id="paint4_linear_65_5179" x1="22.884" y1="53.2014" x2="36.9693" y2="14.1202" gradientUnits="userSpaceOnUse">
<stop stop-color="#10BDCA"/>
<stop offset="1" stop-color="#53FDCA"/>
</linearGradient>
<linearGradient id="paint5_linear_65_5179" x1="28.3456" y1="51.0475" x2="40.775" y2="13.0702" gradientUnits="userSpaceOnUse">
<stop stop-color="#117C60"/>
<stop offset="1" stop-color="#1AC688"/>
</linearGradient>
</defs>
</svg>
