<svg width="83" height="83" viewBox="0 0 83 83" fill="none" xmlns="http://www.w3.org/2000/svg">
<g filter="url(#filter0_d_65_4855)">
<rect x="4" width="75" height="75" rx="25" fill="#49BC98"/>
<path d="M54.0009 25.3852L43.992 18L43.4869 18.0394C43.2463 18.3399 43.0521 18.6747 42.9106 19.0325C42.0258 22.8447 41.1603 26.6666 40.2953 30.4868L40.2947 30.4892L40.2928 30.4979C40.0552 31.5472 39.8176 32.5964 39.5796 33.6453C39.4997 34.0073 39.4246 34.3741 39.3394 34.7903L39.2639 35.1586C39.3792 35.0993 39.478 35.0511 39.5661 35.0081C39.689 34.9482 39.7909 34.8984 39.8875 34.8433L50.6462 28.9162C51.8381 28.2699 53.0221 27.6236 54.2061 26.9616C54.3251 26.9003 54.4265 26.8098 54.5008 26.6987C54.5751 26.5875 54.6199 26.4593 54.631 26.3261C54.642 26.1929 54.619 26.0591 54.564 25.9373C54.509 25.8154 54.4239 25.7095 54.3166 25.6295L54.0009 25.3852Z" fill="white"/>
<path d="M29.4524 26.2207C28.8155 26.6523 28.3188 27.2605 28.0237 27.9704L28 48.3763C28.2815 48.8924 28.6262 49.3716 29.0261 49.8029C31.2818 51.6574 33.5635 53.4902 35.8423 55.3206L35.8438 55.3218C36.6347 55.957 37.4251 56.592 38.2141 57.2275C38.514 57.4718 38.8377 57.6531 39.2165 57.4167C39.3763 57.3075 39.4949 57.1481 39.5535 56.9639C39.6122 56.7797 39.6075 56.5812 39.5402 56.3999C38.3456 50.5622 37.1643 44.7192 35.996 38.8709C35.9052 38.4209 35.9052 37.9573 35.996 37.5073C37.18 31.6801 38.3772 25.8581 39.5875 20.0414C39.6744 19.6158 39.6665 19.2217 39.256 18.9852C38.8455 18.7488 38.5219 18.9773 38.2141 19.2296C37.3924 19.8859 36.5714 20.5429 35.7504 21.1998C33.6534 22.8778 31.557 24.5554 29.4524 26.2207Z" fill="white"/>
<path d="M43.4158 58C43.1815 57.7139 42.99 57.3953 42.8475 57.0542C41.925 52.9928 41.022 48.9216 40.1194 44.8522C39.8711 43.7331 39.6229 42.6142 39.3744 41.4956C39.3744 41.3804 39.35 41.2653 39.3198 41.1224C39.3045 41.0501 39.2877 40.9708 39.2718 40.8808C39.3462 40.9168 39.4133 40.9484 39.4749 40.9774C39.6158 41.0436 39.7279 41.0964 39.8322 41.1567L53.993 48.9833C54.8692 49.472 54.9007 50 54.0719 50.5596L43.992 57.8897L43.921 57.9606L43.4158 58Z" fill="white"/>
<path d="M41.7503 36.6168L39.7059 37.7754L40.2348 38.0986L49.5806 43.3557L54.6876 46.2877C55.177 46.5636 55.6269 46.5163 55.8401 46.1458C55.9574 45.9003 56.0116 45.6294 55.9979 45.3577V30.3823C55.9979 29.2947 55.477 28.9951 54.5297 29.5232L41.7503 36.6168Z" fill="white"/>
</g>
<defs>
<filter id="filter0_d_65_4855" x="0" y="0" width="83" height="83" filterUnits="userSpaceOnUse" color-interpolation-filters="sRGB">
<feFlood flood-opacity="0" result="BackgroundImageFix"/>
<feColorMatrix in="SourceAlpha" type="matrix" values="0 0 0 0 0 0 0 0 0 0 0 0 0 0 0 0 0 0 127 0" result="hardAlpha"/>
<feOffset dy="4"/>
<feGaussianBlur stdDeviation="2"/>
<feComposite in2="hardAlpha" operator="out"/>
<feColorMatrix type="matrix" values="0 0 0 0 0 0 0 0 0 0 0 0 0 0 0 0 0 0 0.25 0"/>
<feBlend mode="normal" in2="BackgroundImageFix" result="effect1_dropShadow_65_4855"/>
<feBlend mode="normal" in="SourceGraphic" in2="effect1_dropShadow_65_4855" result="shape"/>
</filter>
</defs>
</svg>
