<svg width="83" height="83" viewBox="0 0 83 83" fill="none" xmlns="http://www.w3.org/2000/svg">
<g filter="url(#filter0_d_65_5182)">
<rect x="4" width="75" height="75" rx="25" fill="#2081E2"/>
</g>
<path d="M20.0654 40.43L20.263 40.1471L32.1784 23.1718C32.3525 22.9233 32.7619 22.949 32.8936 23.219C34.8842 27.2817 36.6019 32.3345 35.7972 35.4801C35.4537 36.7744 34.5125 38.5272 33.4536 40.1471C33.3172 40.3829 33.1666 40.6143 33.0066 40.8372C32.9313 40.94 32.8042 41 32.6677 41H20.4136C20.0842 41 19.8913 40.6743 20.0654 40.43Z" fill="white"/>
<path d="M66 43.7625V46.375C66 46.525 65.9175 46.6583 65.7975 46.7166C65.0625 47.0666 62.5463 48.35 61.5 49.9667C58.83 54.0958 56.79 60 52.23 60H33.2062C26.4638 60 21 53.9084 21 46.3916V46.15C21 45.95 21.1462 45.7875 21.3262 45.7875H31.9313C32.1412 45.7875 32.295 46.0042 32.2763 46.2333C32.2012 47 32.3288 47.7833 32.655 48.4958C33.285 49.9167 34.59 50.8042 36 50.8042H41.25V46.25H36.06C35.7938 46.25 35.6363 45.9083 35.79 45.6667C35.8462 45.5708 35.91 45.4709 35.9775 45.3584C36.4688 44.5834 37.17 43.3792 37.8675 42.0084C38.3438 41.0834 38.805 40.0959 39.1763 39.1042C39.2513 38.925 39.3112 38.7416 39.3712 38.5625C39.4725 38.2458 39.5775 37.95 39.6525 37.6542C39.7275 37.4041 39.7875 37.1417 39.8475 36.8958C40.0238 36.0541 40.0987 35.1625 40.0987 34.2375C40.0987 33.875 40.0838 33.4958 40.0538 33.1333C40.0387 32.7375 39.9938 32.3416 39.9487 31.9458C39.9187 31.5958 39.8625 31.25 39.8025 30.8875C39.7275 30.3583 39.6225 29.8334 39.5025 29.3041L39.4612 29.1042C39.3712 28.7416 39.2963 28.3959 39.1913 28.0334C38.895 26.8958 38.5538 25.7875 38.1938 24.75C38.0625 24.3375 37.9125 23.9417 37.7625 23.5459C37.5413 22.95 37.3162 22.4084 37.11 21.8958C37.005 21.6625 36.915 21.45 36.825 21.2333C36.7238 20.9875 36.6188 20.7416 36.5137 20.5084C36.4388 20.3292 36.3525 20.1625 36.2925 19.9958L35.6513 18.6792C35.5613 18.5 35.7113 18.2875 35.8875 18.3417L39.9 19.55H39.9113C39.9187 19.55 39.9225 19.5542 39.9262 19.5542L40.455 19.7166L41.0363 19.9L41.25 19.9666V17.3167C41.25 16.0375 42.1725 15 43.3125 15C43.8825 15 44.4 15.2583 44.7713 15.6791C45.1425 16.1 45.375 16.675 45.375 17.3167V21.25L45.8025 21.3833C45.8363 21.3959 45.87 21.4125 45.9 21.4375C46.005 21.525 46.155 21.6541 46.3462 21.8125C46.4963 21.9458 46.6575 22.1083 46.8525 22.275C47.2387 22.6208 47.7 23.0667 48.2063 23.5792C48.3412 23.7083 48.4725 23.8417 48.5925 23.975C49.245 24.65 49.9763 25.4417 50.6738 26.3167C50.8688 26.5625 51.06 26.8125 51.255 27.075C51.45 27.3417 51.6563 27.6041 51.8362 27.8667C52.0725 28.2167 52.3275 28.5792 52.5488 28.9584C52.6538 29.1375 52.7738 29.3208 52.875 29.5C53.16 29.9791 53.4113 30.475 53.6513 30.9709C53.7525 31.2 53.8575 31.45 53.9475 31.6958C54.2137 32.3583 54.4238 33.0333 54.5587 33.7083C54.6 33.8542 54.63 34.0125 54.645 34.1542V34.1875C54.69 34.3875 54.705 34.6 54.72 34.8166C54.78 35.5083 54.75 36.2 54.615 36.8958C54.5587 37.1917 54.4838 37.4708 54.3938 37.7667C54.3038 38.05 54.2137 38.3458 54.0975 38.625C53.8725 39.2041 53.6062 39.7833 53.2913 40.325C53.19 40.525 53.07 40.7375 52.95 40.9375C52.8187 41.15 52.6838 41.35 52.5637 41.5459C52.3988 41.7958 52.2225 42.0583 52.0425 42.2917C51.8813 42.5375 51.7163 42.7834 51.5363 43C51.285 43.3292 51.045 43.6417 50.7937 43.9417C50.6438 44.1375 50.4825 44.3375 50.3175 44.5167C50.1563 44.7166 49.9912 44.8958 49.8412 45.0625C49.59 45.3417 49.38 45.5583 49.2037 45.7375L48.7913 46.1584C48.7313 46.2167 48.6525 46.25 48.57 46.25H45.375V50.8042H49.395C50.295 50.8042 51.15 50.45 51.84 49.8C52.0763 49.5708 53.1075 48.5792 54.3262 47.0833C54.3675 47.0333 54.42 46.9958 54.48 46.9792L65.5838 43.4125C65.7901 43.3459 66 43.5208 66 43.7625Z" fill="white"/>
<defs>
<filter id="filter0_d_65_5182" x="0" y="0" width="83" height="83" filterUnits="userSpaceOnUse" color-interpolation-filters="sRGB">
<feFlood flood-opacity="0" result="BackgroundImageFix"/>
<feColorMatrix in="SourceAlpha" type="matrix" values="0 0 0 0 0 0 0 0 0 0 0 0 0 0 0 0 0 0 127 0" result="hardAlpha"/>
<feOffset dy="4"/>
<feGaussianBlur stdDeviation="2"/>
<feComposite in2="hardAlpha" operator="out"/>
<feColorMatrix type="matrix" values="0 0 0 0 0 0 0 0 0 0 0 0 0 0 0 0 0 0 0.25 0"/>
<feBlend mode="normal" in2="BackgroundImageFix" result="effect1_dropShadow_65_5182"/>
<feBlend mode="normal" in="SourceGraphic" in2="effect1_dropShadow_65_5182" result="shape"/>
</filter>
</defs>
</svg>
