<svg width="83" height="83" viewBox="0 0 83 83" fill="none" xmlns="http://www.w3.org/2000/svg">
<g filter="url(#filter0_d_65_5181)">
<rect x="4" width="75" height="75" rx="25" fill="url(#paint0_linear_65_5181)"/>
</g>
<path fill-rule="evenodd" clip-rule="evenodd" d="M42.0002 62.2943C34.9016 62.2889 29.1835 60.5856 25.1882 57.526C21.1449 54.4297 19 50.0358 19 45.064C19 40.2733 21.1402 36.8188 23.5619 34.4839C25.4597 32.654 27.5539 31.482 29.0122 30.8079C28.6825 29.7959 28.271 28.4709 27.9029 27.1025C27.4104 25.2713 26.9272 23.1229 26.9272 21.5485C26.9272 19.685 27.3335 17.8136 28.429 16.3594C29.5863 14.823 31.3287 14 33.4249 14C35.063 14 36.4539 14.6076 37.5428 15.656C38.5836 16.6579 39.2763 17.9887 39.7546 19.3759C40.595 21.8134 40.9223 24.8759 41.0141 27.932H43.0219C43.1137 24.8759 43.4409 21.8134 44.2814 19.3759C44.7597 17.9887 45.4524 16.6579 46.4932 15.656C47.5821 14.6076 48.9729 14 50.6112 14C52.7073 14 54.4497 14.823 55.6071 16.3594C56.7025 17.8136 57.1088 19.685 57.1088 21.5485C57.1088 23.1229 56.6256 25.2713 56.1331 27.1025C55.765 28.4709 55.3536 29.7959 55.0238 30.8079C56.4821 31.482 58.5763 32.654 60.4741 34.4839C62.8958 36.8188 65.0359 40.2733 65.0359 45.064C65.0359 50.0358 62.8911 54.4297 58.8479 57.526C54.8526 60.5856 49.1345 62.2889 42.0358 62.2943H42.0002Z" fill="#633001"/>
<path d="M33.4249 15.7722C30.3548 15.7722 28.9415 18.086 28.9415 21.286C28.9415 23.8294 30.5836 28.9233 31.2574 30.9064C31.4089 31.3523 31.1707 31.841 30.7365 32.014C28.2759 32.9941 21.0144 36.5827 21.0144 44.8014C21.0144 53.4589 28.3937 59.9866 42.0018 59.997C42.0072 59.997 42.0126 59.997 42.0181 59.997C42.0235 59.997 42.0289 59.997 42.0344 59.997C55.6424 59.9866 63.0218 53.4589 63.0218 44.8014C63.0218 36.5827 55.7603 32.9941 53.2997 32.014C52.8654 31.841 52.6273 31.3523 52.7788 30.9064C53.4526 28.9233 55.0946 23.8294 55.0946 21.286C55.0946 18.086 53.6814 15.7722 50.6112 15.7722C46.1919 15.7722 45.0903 22.0963 45.0117 28.8835C45.0064 29.3367 44.6438 29.7043 44.1953 29.7043H39.8409C39.3923 29.7043 39.0297 29.3367 39.0245 28.8835C38.9459 22.0963 37.8442 15.7722 33.4249 15.7722Z" fill="#D1884F"/>
<path d="M42.0344 57.2237C32.0358 57.2237 21.0317 51.8169 21.0144 44.8179C21.0144 44.8288 21.0144 44.8398 21.0144 44.8506C21.0144 53.5151 28.4055 60.0462 42.0344 60.0462C55.6632 60.0462 63.0542 53.5151 63.0542 44.8506C63.0542 44.8398 63.0542 44.8288 63.0542 44.8179C63.037 51.8169 52.0329 57.2237 42.0344 57.2237Z" fill="#FEDC90"/>
<path d="M36.4788 42.6682C36.4788 45.0312 35.3733 46.262 34.0096 46.262C32.6459 46.262 31.5405 45.0312 31.5405 42.6682C31.5405 40.3052 32.6459 39.0745 34.0096 39.0745C35.3733 39.0745 36.4788 40.3052 36.4788 42.6682Z" fill="#633001"/>
<path d="M52.5278 42.6682C52.5278 45.0312 51.4224 46.262 50.0587 46.262C48.6951 46.262 47.5896 45.0312 47.5896 42.6682C47.5896 40.3052 48.6951 39.0745 50.0587 39.0745C51.4224 39.0745 52.5278 40.3052 52.5278 42.6682Z" fill="#633001"/>
<defs>
<filter id="filter0_d_65_5181" x="0" y="0" width="83" height="83" filterUnits="userSpaceOnUse" color-interpolation-filters="sRGB">
<feFlood flood-opacity="0" result="BackgroundImageFix"/>
<feColorMatrix in="SourceAlpha" type="matrix" values="0 0 0 0 0 0 0 0 0 0 0 0 0 0 0 0 0 0 127 0" result="hardAlpha"/>
<feOffset dy="4"/>
<feGaussianBlur stdDeviation="2"/>
<feComposite in2="hardAlpha" operator="out"/>
<feColorMatrix type="matrix" values="0 0 0 0 0 0 0 0 0 0 0 0 0 0 0 0 0 0 0.25 0"/>
<feBlend mode="normal" in2="BackgroundImageFix" result="effect1_dropShadow_65_5181"/>
<feBlend mode="normal" in="SourceGraphic" in2="effect1_dropShadow_65_5181" result="shape"/>
</filter>
<linearGradient id="paint0_linear_65_5181" x1="41.5" y1="0" x2="41.5" y2="75" gradientUnits="userSpaceOnUse">
<stop stop-color="#53DEE9"/>
<stop offset="1" stop-color="#1FC7D4"/>
</linearGradient>
</defs>
</svg>
