<svg width="83" height="83" viewBox="0 0 83 83" fill="none" xmlns="http://www.w3.org/2000/svg">
<g filter="url(#filter0_d_65_5180)">
<rect x="4" width="75" height="75" rx="25" fill="white"/>
</g>
<path d="M28.8812 17.5283L66.0812 42.9283L56.8812 56.5283L19.6812 30.9283L28.8812 17.5283Z" fill="url(#paint0_linear_65_5180)"/>
<path d="M66.081 42.9282C62.881 47.5282 52.081 45.7282 41.881 38.5282C31.481 31.5282 25.881 22.1282 28.881 17.5282C32.081 12.9282 42.881 14.7282 53.081 21.9282C63.481 28.7282 69.081 38.3282 66.081 42.9282Z" fill="url(#paint1_linear_65_5180)"/>
<path d="M56.8811 56.3283C53.6811 60.9283 42.8811 59.1283 32.6811 51.9282C22.4811 44.7283 16.6811 35.5282 19.8811 30.7282C23.0811 26.1282 33.8811 27.9282 44.0811 35.1282C54.2811 42.3282 59.8811 51.7283 56.8811 56.3283Z" fill="url(#paint2_linear_65_5180)"/>
<path d="M66.0811 42.9282L56.8811 56.5282C53.6811 61.1282 42.8811 59.1282 32.6811 52.1282C30.6811 50.7282 28.8811 49.3282 27.0811 47.7282C28.4811 47.5282 30.2811 46.7282 32.0811 44.7282C35.2811 41.3282 36.8811 40.5282 38.2811 40.7282C39.6811 40.7282 41.2811 42.1282 43.8811 45.5282C46.4811 48.9282 50.0811 49.9282 52.2811 48.1282C52.4811 47.9282 52.6811 47.9282 52.8811 47.7282C54.6811 46.3282 55.2811 45.7282 58.6811 39.3282C59.4811 37.7282 62.2811 35.1282 66.0811 36.3282C67.0811 38.9282 67.0811 41.1282 66.0811 42.9282Z" fill="#0E0F23"/>
<path fill-rule="evenodd" clip-rule="evenodd" d="M64.6812 42.1283C61.8812 46.1283 52.0812 44.1283 42.6812 37.5283C33.0812 30.9283 27.4812 22.5283 30.2812 18.5283C33.0812 14.5283 42.8812 16.5283 52.2812 23.1283C61.6812 29.7283 67.2812 38.1283 64.6812 42.1283ZM55.8812 36.1283C54.4812 38.1283 49.6812 37.1283 44.8812 33.9283C40.2812 30.7283 37.4812 26.5283 38.8812 24.5283C40.2812 22.5283 45.0812 23.5283 49.8812 26.7283C54.4812 29.9283 57.2812 34.1283 55.8812 36.1283Z" fill="white"/>
<path d="M28.081 22.1281C28.081 21.9281 27.881 21.7281 27.681 21.9281C27.481 22.1281 27.281 22.1281 27.281 22.3281C27.481 22.9281 27.681 23.3281 27.681 23.7281C27.681 23.9281 27.881 24.1281 28.081 23.9281C28.281 23.9281 28.481 23.7281 28.281 23.5281C28.281 23.1281 28.281 22.7281 28.081 22.1281Z" fill="white"/>
<path d="M29.0812 25.3283C29.0812 25.1283 28.8812 24.9283 28.6812 25.1283C28.4812 25.3283 28.4812 25.3283 28.4812 25.5283C30.6812 30.5283 35.2812 35.9283 41.2812 39.9283C41.4812 40.1283 41.6812 39.9283 41.8812 39.9283C42.0812 39.7283 41.8812 39.5283 41.8812 39.3283C35.6812 35.3283 31.2812 30.1283 29.0812 25.3283Z" fill="white"/>
<path d="M53.2811 44.9282C53.0811 44.9282 52.8811 44.9282 52.8811 45.1282C52.8811 45.3282 52.8811 45.5282 53.0811 45.5282C53.6811 45.7282 54.4811 45.9282 55.0811 46.1282C55.2811 46.1282 55.4811 46.1282 55.4811 45.9282C55.4811 45.7282 55.4811 45.5282 55.2811 45.5282C54.6811 45.3282 53.8811 45.1282 53.2811 44.9282Z" fill="white"/>
<path d="M56.8812 45.728C56.6812 45.728 56.4812 45.928 56.4812 46.128C56.4812 46.328 56.6812 46.528 56.8812 46.528C58.4812 46.728 60.2812 46.928 61.6812 46.728C61.8812 46.728 62.0812 46.528 62.0812 46.328C62.0812 46.128 61.8812 45.928 61.6812 45.928C60.0812 46.128 58.4812 45.928 56.8812 45.728Z" fill="white"/>
<defs>
<filter id="filter0_d_65_5180" x="0" y="0" width="83" height="83" filterUnits="userSpaceOnUse" color-interpolation-filters="sRGB">
<feFlood flood-opacity="0" result="BackgroundImageFix"/>
<feColorMatrix in="SourceAlpha" type="matrix" values="0 0 0 0 0 0 0 0 0 0 0 0 0 0 0 0 0 0 127 0" result="hardAlpha"/>
<feOffset dy="4"/>
<feGaussianBlur stdDeviation="2"/>
<feComposite in2="hardAlpha" operator="out"/>
<feColorMatrix type="matrix" values="0 0 0 0 0 0 0 0 0 0 0 0 0 0 0 0 0 0 0.25 0"/>
<feBlend mode="normal" in2="BackgroundImageFix" result="effect1_dropShadow_65_5180"/>
<feBlend mode="normal" in="SourceGraphic" in2="effect1_dropShadow_65_5180" result="shape"/>
</filter>
<linearGradient id="paint0_linear_65_5180" x1="36.1696" y1="13.9169" x2="43.5468" y2="39.2493" gradientUnits="userSpaceOnUse">
<stop stop-color="#03B8FF"/>
<stop offset="1" stop-color="#FA52A0"/>
</linearGradient>
<linearGradient id="paint1_linear_65_5180" x1="42.2446" y1="12.1474" x2="49.622" y2="37.48" gradientUnits="userSpaceOnUse">
<stop stop-color="#03B8FF"/>
<stop offset="1" stop-color="#FA52A0"/>
</linearGradient>
<linearGradient id="paint2_linear_65_5180" x1="30.1131" y1="15.6804" x2="37.4905" y2="41.013" gradientUnits="userSpaceOnUse">
<stop stop-color="#03B8FF"/>
<stop offset="1" stop-color="#FA52A0"/>
</linearGradient>
</defs>
</svg>
