<svg width="83" height="83" viewBox="0 0 83 83" fill="none" xmlns="http://www.w3.org/2000/svg">
<g filter="url(#filter0_d_65_5184)">
<rect x="4" width="75" height="75" rx="25" fill="white"/>
</g>
<path fill-rule="evenodd" clip-rule="evenodd" d="M20.448 14L19.9445 14.4313L22.6431 17.4915L31.392 27.4712L32.105 28.309C32.5568 28.8884 32.3867 29.4093 31.6128 29.8176C31.1826 30.0445 30.2977 30.2746 29.8547 30.2746C29.3537 30.2746 28.789 30.0507 28.3781 29.6889C28.3687 29.6807 28.3584 29.671 28.3472 29.6599L28.2202 29.5196L28.0388 29.2959L27.4991 28.5783L26.539 27.2418L20.366 18.4258L20.3328 18.3953C20.3269 18.392 20.3243 18.3936 20.3278 18.4045L20.3356 18.4241L20.4111 18.5653L24.9885 26.1957L26.3574 28.5107L26.832 29.3489L26.9838 29.634L27.106 29.8897L27.1352 29.9687L27.1447 30.0177C27.1447 30.3934 27.0342 30.591 26.5346 31.108L26.3837 31.2711C25.6557 32.0953 25.3126 33.0642 25.0606 34.9437L25.0161 35.2462C24.6792 37.3375 23.8054 38.9019 21.5643 41.4954L21.147 41.9797L20.526 42.7138L20.2059 43.1128L20.0422 43.3321L19.9062 43.5297L19.7873 43.7193L19.6181 44.0183C19.1814 44.8255 19.0613 45.2777 19.0126 46.297C18.9612 47.3748 19.0613 48.071 19.4163 49.1014C19.6752 49.8531 19.9435 50.3921 20.5055 51.2404L21.1885 52.2457L21.4513 52.6588L21.6663 53.0257C21.8882 53.425 22.0077 53.7208 22.0077 53.8817L22.0127 53.9642C22.0251 54.034 22.0668 54.0659 22.2027 54.0603L22.3723 54.0421C22.4066 54.037 22.4441 54.0308 22.4851 54.0237L22.7758 53.968L23.6566 53.7784C26.0839 53.2087 28.0483 52.2791 29.1842 51.1559C29.9341 50.4142 30.1101 50.0047 30.1158 48.9884C30.1162 48.9145 30.1163 48.8472 30.1158 48.7852L30.1048 48.4703C30.0841 48.2038 30.0298 48.057 29.9007 47.8021C29.5856 47.1797 29.0116 46.6621 27.7467 45.8599L27.447 45.6651C26.0029 44.7017 25.3694 43.8896 25.1861 42.7984C25.0445 41.9558 25.1727 41.3321 25.8347 39.9722L26.3212 39.0067C27.1108 37.4234 27.324 36.6218 27.4718 34.8945L27.4963 34.6298C27.5978 33.6204 27.7454 33.1894 28.089 32.8382C28.4771 32.4415 28.8266 32.3071 29.7871 32.1854L30.167 32.1319C31.5181 31.9219 32.4185 31.5525 33.1699 30.9101C33.8809 30.3022 34.1784 29.7164 34.2241 28.8346L34.2588 28.1661L33.8615 27.7363L33.576 27.4343L20.448 14ZM21.2648 46.4531C21.1588 46.3841 21.1106 46.3052 21.1106 46.2043C21.1106 45.7909 21.9094 45.6414 22.4236 45.9587C22.9677 46.2944 23.1407 46.9817 22.8152 47.5164C22.5038 48.0284 21.9088 48.1962 21.4885 47.8909C21.2277 47.7015 21.2094 47.4227 21.4368 47.1056L21.5025 47.007C21.6534 46.7587 21.6088 46.6242 21.3553 46.5031L21.2648 46.4531Z" fill="#FF007A"/>
<path d="M32.608 18.3629C31.966 18.2704 31.9389 18.2596 32.241 18.2165C32.8199 18.1338 34.1871 18.2465 35.1291 18.4543C37.3284 18.9393 39.3296 20.1819 41.4658 22.3887L42.0332 22.975L42.845 22.8539C46.2653 22.3439 49.7447 22.7492 52.6548 23.9966C53.4553 24.3399 54.7176 25.023 54.8752 25.1985C54.9256 25.2545 55.0178 25.6145 55.0802 25.9988C55.2965 27.3283 55.1882 28.3474 54.75 29.1085C54.5114 29.5226 54.4982 29.6539 54.6585 30.0084C54.7865 30.2913 55.1433 30.5006 55.4967 30.5001C56.2199 30.4993 56.9983 29.4146 57.3589 27.9052L57.5021 27.3058L57.786 27.604C59.3428 29.2406 60.5654 31.4724 60.7756 33.061L60.8302 33.4751L60.5686 33.0986C60.1182 32.4506 59.6658 32.0095 59.0864 31.6538C58.0418 31.0126 56.9375 30.7943 54.0126 30.6513C51.3711 30.5221 49.8761 30.3128 48.3937 29.8643C45.8714 29.1012 44.5998 28.0851 41.6038 24.4377C40.2731 22.8178 39.4505 21.9214 38.6324 21.1996C36.7733 19.5595 34.9465 18.6993 32.608 18.3629Z" fill="#FF007A"/>
<path d="M55.4712 21.9797C55.5376 20.8942 55.6963 20.1782 56.0154 19.5243C56.1416 19.2655 56.2599 19.0537 56.2782 19.0537C56.2964 19.0537 56.2415 19.2447 56.1561 19.4782C55.9242 20.1127 55.8861 20.9808 56.0459 21.9906C56.2488 23.2719 56.364 23.4569 57.8237 24.841C58.5082 25.4902 59.3046 26.309 59.5933 26.6606L60.118 27.2998L59.5933 26.8429C58.9513 26.2844 57.475 25.1948 57.1489 25.0392C56.9303 24.9347 56.8979 24.9365 56.7631 25.0611C56.6388 25.1759 56.6126 25.3482 56.5953 26.1635C56.5684 27.4342 56.3818 28.2498 55.9313 29.0653C55.6876 29.5063 55.6493 29.4123 55.8697 28.9144C56.0343 28.5427 56.0511 28.3793 56.0498 27.1492C56.0473 24.6776 55.7312 24.0834 53.8765 23.0657C53.4067 22.8078 52.6327 22.4359 52.1564 22.2393C51.6802 22.0424 51.3018 21.8712 51.3156 21.8584C51.368 21.8099 53.1767 22.2997 53.9046 22.5595C54.9873 22.9459 55.166 22.996 55.2976 22.9495C55.3858 22.9182 55.4283 22.6799 55.4712 21.9797Z" fill="#FF007A"/>
<path d="M33.8549 26.2078C32.5516 24.5431 31.7453 21.9905 31.9199 20.0824L31.9739 19.4919L32.2706 19.5422C32.8277 19.6364 33.7882 19.9682 34.238 20.2216C35.4722 20.9172 36.0066 21.8329 36.5503 24.1844C36.7094 24.8731 36.9184 25.6525 37.0146 25.9164C37.1694 26.3411 37.7541 27.3333 38.2295 27.9775C38.572 28.4416 38.3446 28.6616 37.5875 28.5981C36.4314 28.5013 34.8652 27.4983 33.8549 26.2078Z" fill="#FF007A"/>
<path d="M53.8905 38.5983C47.8 36.3229 45.6548 34.3478 45.6548 31.0154C45.6548 30.5251 45.6731 30.1238 45.6952 30.1238C45.7174 30.1238 45.953 30.2856 46.2187 30.4835C47.4538 31.4026 48.8368 31.7952 52.6656 32.3135C54.9186 32.6185 56.1865 32.8648 57.3559 33.2247C61.0734 34.3687 63.3734 36.69 63.9217 39.852C64.0812 40.7707 63.9878 42.4937 63.7293 43.4017C63.5254 44.1189 62.9028 45.4117 62.7377 45.4613C62.692 45.4751 62.647 45.3123 62.6353 45.0908C62.5727 43.9036 61.926 42.7476 60.8401 41.8817C59.6054 40.8973 57.9465 40.1135 53.8905 38.5983Z" fill="#FF007A"/>
<path d="M49.6146 39.5434C49.5382 39.122 49.4058 38.584 49.3205 38.3477L49.165 37.918L49.4537 38.2187C49.8532 38.6347 50.1688 39.167 50.4364 39.876C50.6406 40.4172 50.6635 40.5781 50.662 41.4574C50.6605 42.3208 50.6349 42.5018 50.4464 42.9888C50.149 43.7569 49.7801 44.3015 49.161 44.8862C48.0484 45.9367 46.618 46.5184 44.5539 46.7598C44.195 46.8015 43.1494 46.8723 42.2299 46.9165C39.913 47.0284 38.3881 47.2593 37.0178 47.7058C36.821 47.7701 36.6451 47.8091 36.6271 47.7924C36.5716 47.7413 37.5047 47.2252 38.2751 46.8809C39.3617 46.3952 40.4432 46.1301 42.8666 45.7558C44.0638 45.5708 45.3 45.3464 45.614 45.257C48.5784 44.4136 50.1023 42.2373 49.6146 39.5434Z" fill="#FF007A"/>
<path d="M52.4063 44.1443C51.5972 42.5303 51.4113 40.9717 51.8547 39.5184C51.9022 39.3632 51.9784 39.2361 52.0243 39.2361C52.0701 39.2361 52.2611 39.3318 52.4485 39.4489C52.8214 39.6818 53.5693 40.0741 55.5618 41.0821C58.0482 42.3398 59.4658 43.3137 60.4297 44.4265C61.2741 45.4011 61.7965 46.5108 62.0478 47.8642C62.1904 48.6309 62.1068 50.4757 61.8949 51.2475C61.2264 53.6817 59.6728 55.5937 57.4567 56.7093C57.1321 56.8726 56.8405 57.0069 56.809 57.0075C56.7774 57.0081 56.8959 56.729 57.0719 56.3873C57.8175 54.9414 57.9023 53.535 57.3387 51.9695C56.9935 51.011 56.29 49.8414 54.8693 47.8646C53.2176 45.5663 52.8126 44.9547 52.4063 44.1443Z" fill="#FF007A"/>
<path d="M29.5296 52.8531C31.7897 51.0823 34.602 49.8244 37.1637 49.4383C38.2676 49.2719 40.1067 49.3378 41.1289 49.5807C42.7676 49.9698 44.2336 50.8414 44.9959 51.8796C45.7409 52.8945 46.0605 53.7788 46.3932 55.7464C46.5246 56.5226 46.6673 57.302 46.7105 57.4785C46.9605 58.4982 47.4469 59.3134 48.0495 59.7228C49.0067 60.3727 50.655 60.4133 52.2764 59.8263C52.5517 59.7268 52.7905 59.6579 52.8073 59.6734C52.8661 59.7277 52.0497 60.2348 51.4736 60.5017C50.6985 60.861 50.0822 60.9999 49.2633 60.9999C47.7783 60.9999 46.5454 60.2989 45.5166 58.8697C45.3141 58.5884 44.8592 57.7457 44.5055 56.9975C43.4191 54.6986 42.8829 53.9984 41.6216 53.2319C40.5241 52.5652 39.1087 52.4457 38.0437 52.9301C36.6451 53.5665 36.2547 55.225 37.2565 56.2761C37.6547 56.6938 38.3972 57.0542 39.0043 57.1241C40.1402 57.2553 41.1165 56.4535 41.1165 55.3894C41.1165 54.6986 40.8303 54.3042 40.1097 54.0026C39.1256 53.5906 38.068 54.0721 38.073 54.93C38.0751 55.2957 38.2469 55.5254 38.6419 55.6912C38.8954 55.7977 38.9014 55.806 38.6945 55.7663C37.7917 55.5926 37.5803 54.5826 38.3062 53.9121C39.1778 53.1072 40.9801 53.4623 41.599 54.561C41.859 55.0226 41.8892 55.9417 41.6625 56.4965C41.1552 57.7388 39.6758 58.392 38.1751 58.0366C37.1534 57.7945 36.7374 57.5324 35.5055 56.3552C33.365 54.3093 32.5339 53.9129 29.4481 53.4657L28.8567 53.3802L29.5296 52.8531Z" fill="#FF007A"/>
<path fill-rule="evenodd" clip-rule="evenodd" d="M35.2471 32.5359C34.5119 32.7454 33.7973 33.4684 33.576 34.2264C33.441 34.6889 33.5176 35.5001 33.7197 35.7506C34.0463 36.1553 34.3621 36.262 35.2172 36.2563C36.8915 36.2455 38.347 35.5792 38.5161 34.7464C38.6548 34.0636 38.0156 33.1174 37.1352 32.7021C36.6809 32.4878 35.7146 32.4027 35.2471 32.5359ZM37.2043 33.9558C37.4624 33.6155 37.3494 33.2476 36.9102 32.9988C36.074 32.525 34.8096 32.9169 34.8096 33.65C34.8096 34.0148 35.469 34.4129 36.0735 34.4129C36.4758 34.4129 37.0263 34.1904 37.2043 33.9558Z" fill="#FF007A"/>
<defs>
<filter id="filter0_d_65_5184" x="0" y="0" width="83" height="83" filterUnits="userSpaceOnUse" color-interpolation-filters="sRGB">
<feFlood flood-opacity="0" result="BackgroundImageFix"/>
<feColorMatrix in="SourceAlpha" type="matrix" values="0 0 0 0 0 0 0 0 0 0 0 0 0 0 0 0 0 0 127 0" result="hardAlpha"/>
<feOffset dy="4"/>
<feGaussianBlur stdDeviation="2"/>
<feComposite in2="hardAlpha" operator="out"/>
<feColorMatrix type="matrix" values="0 0 0 0 0 0 0 0 0 0 0 0 0 0 0 0 0 0 0.25 0"/>
<feBlend mode="normal" in2="BackgroundImageFix" result="effect1_dropShadow_65_5184"/>
<feBlend mode="normal" in="SourceGraphic" in2="effect1_dropShadow_65_5184" result="shape"/>
</filter>
</defs>
</svg>
